<?xml version="1.0" standalone="no"?>
<svg xmlns:xlink="http://www.w3.org/1999/xlink" id="wave" style="transform:rotate(180deg); transition: 0.3s" viewBox="0 0 1440 270" version="1.1" xmlns="http://www.w3.org/2000/svg"><defs><linearGradient id="sw-gradient-0" x1="0" x2="0" y1="1" y2="0"><stop stop-color="rgba(221, 221, 221, 1)" offset="0%"/><stop stop-color="rgba(221, 221, 221, 1)" offset="100%"/></linearGradient></defs><path style="transform:translate(0, 0px); opacity:1" fill="url(#sw-gradient-0)" d="M0,216L80,207C160,198,320,180,480,184.5C640,189,800,216,960,198C1120,180,1280,117,1440,117C1600,117,1760,180,1920,189C2080,198,2240,153,2400,121.5C2560,90,2720,72,2880,54C3040,36,3200,18,3360,9C3520,0,3680,0,3840,18C4000,36,4160,72,4320,76.5C4480,81,4640,54,4800,40.5C4960,27,5120,27,5280,54C5440,81,5600,135,5760,171C5920,207,6080,225,6240,234C6400,243,6560,243,6720,243C6880,243,7040,243,7200,243C7360,243,7520,243,7680,238.5C7840,234,8000,225,8160,216C8320,207,8480,198,8640,184.5C8800,171,8960,153,9120,153C9280,153,9440,171,9600,175.5C9760,180,9920,171,10080,175.5C10240,180,10400,198,10560,193.5C10720,189,10880,162,11040,130.5C11200,99,11360,63,11440,45L11520,27L11520,270L11440,270C11360,270,11200,270,11040,270C10880,270,10720,270,10560,270C10400,270,10240,270,10080,270C9920,270,9760,270,9600,270C9440,270,9280,270,9120,270C8960,270,8800,270,8640,270C8480,270,8320,270,8160,270C8000,270,7840,270,7680,270C7520,270,7360,270,7200,270C7040,270,6880,270,6720,270C6560,270,6400,270,6240,270C6080,270,5920,270,5760,270C5600,270,5440,270,5280,270C5120,270,4960,270,4800,270C4640,270,4480,270,4320,270C4160,270,4000,270,3840,270C3680,270,3520,270,3360,270C3200,270,3040,270,2880,270C2720,270,2560,270,2400,270C2240,270,2080,270,1920,270C1760,270,1600,270,1440,270C1280,270,1120,270,960,270C800,270,640,270,480,270C320,270,160,270,80,270L0,270Z"/></svg>