<svg id="visual" viewBox="0 0 960 540" width="960" height="540" xmlns="http://www.w3.org/2000/svg" xmlns:xlink="http://www.w3.org/1999/xlink" version="1.1"><rect x="0" y="0" width="960" height="540" fill="#ffffff"></rect><defs><linearGradient id="grad1_0" x1="43.8%" y1="0%" x2="100%" y2="100%"><stop offset="14.444444444444446%" stop-color="#eeeeee" stop-opacity="1"></stop><stop offset="85.55555555555554%" stop-color="#eeeeee" stop-opacity="1"></stop></linearGradient></defs><defs><linearGradient id="grad1_1" x1="43.8%" y1="0%" x2="100%" y2="100%"><stop offset="14.444444444444446%" stop-color="#eeeeee" stop-opacity="1"></stop><stop offset="85.55555555555554%" stop-color="#ffffff" stop-opacity="1"></stop></linearGradient></defs><defs><linearGradient id="grad2_0" x1="0%" y1="0%" x2="56.3%" y2="100%"><stop offset="14.444444444444446%" stop-color="#eeeeee" stop-opacity="1"></stop><stop offset="85.55555555555554%" stop-color="#eeeeee" stop-opacity="1"></stop></linearGradient></defs><defs><linearGradient id="grad2_1" x1="0%" y1="0%" x2="56.3%" y2="100%"><stop offset="14.444444444444446%" stop-color="#ffffff" stop-opacity="1"></stop><stop offset="85.55555555555554%" stop-color="#eeeeee" stop-opacity="1"></stop></linearGradient></defs><g transform="translate(960, 0)"><path d="M0 459C-79.1 445.7 -158.1 432.4 -228.5 395.8C-298.9 359.2 -360.5 299.3 -397.5 229.5C-434.5 159.7 -446.7 79.8 -459 0L0 0Z" fill="#f6f6f6"></path><path d="M0 229.5C-39.5 222.8 -79.1 216.2 -114.2 197.9C-149.4 179.6 -180.3 149.7 -198.8 114.8C-217.2 79.8 -223.4 39.9 -229.5 0L0 0Z" fill="#eeeeee"></path></g><g transform="translate(0, 540)"><path d="M0 -459C81.3 -447.6 162.7 -436.2 229.5 -397.5C296.3 -358.8 348.7 -292.8 384.5 -222C420.3 -151.2 439.7 -75.6 459 0L0 0Z" fill="#f6f6f6"></path><path d="M0 -229.5C40.7 -223.8 81.3 -218.1 114.7 -198.8C148.2 -179.4 174.3 -146.4 192.3 -111C210.2 -75.6 219.8 -37.8 229.5 0L0 0Z" fill="#eeeeee"></path></g></svg>