<svg id="visual" viewBox="0 0 900 600" width="900" height="600" xmlns="http://www.w3.org/2000/svg" xmlns:xlink="http://www.w3.org/1999/xlink" version="1.1"><rect x="0" y="0" width="900" height="600" fill="#fff"></rect><defs><linearGradient id="grad1_0" x1="33.3%" y1="100%" x2="100%" y2="0%"><stop offset="20%" stop-color="#eeeeee" stop-opacity="1"></stop><stop offset="80%" stop-color="#eeeeee" stop-opacity="1"></stop></linearGradient></defs><defs><linearGradient id="grad1_1" x1="33.3%" y1="100%" x2="100%" y2="0%"><stop offset="20%" stop-color="#eeeeee" stop-opacity="1"></stop><stop offset="80%" stop-color="#ffffff" stop-opacity="1"></stop></linearGradient></defs><defs><linearGradient id="grad2_0" x1="0%" y1="100%" x2="66.7%" y2="0%"><stop offset="20%" stop-color="#eeeeee" stop-opacity="1"></stop><stop offset="80%" stop-color="#eeeeee" stop-opacity="1"></stop></linearGradient></defs><defs><linearGradient id="grad2_1" x1="0%" y1="100%" x2="66.7%" y2="0%"><stop offset="20%" stop-color="#ffffff" stop-opacity="1"></stop><stop offset="80%" stop-color="#eeeeee" stop-opacity="1"></stop></linearGradient></defs><g transform="translate(900, 600)"><path d="M-459.7 0C-452.7 -59.8 -445.7 -119.5 -424.7 -175.9C-403.7 -232.3 -368.8 -285.4 -323.9 -323.9C-278.9 -362.3 -224 -386.3 -168.4 -406.5C-112.7 -426.7 -56.4 -443.2 0 -459.7L0 0Z" fill="#f6f6f6"></path><path d="M-229.9 0C-226.4 -29.9 -222.8 -59.8 -212.4 -88C-201.9 -116.2 -184.4 -142.7 -161.9 -161.9C-139.5 -181.2 -112 -193.1 -84.2 -203.3C-56.4 -213.4 -28.2 -221.6 0 -229.9L0 0Z" fill="#eeeeee"></path></g><g transform="translate(0, 0)"><path d="M459.7 0C446.1 58.1 432.5 116.2 410.2 169.9C387.9 223.6 356.9 272.9 317.5 317.5C278.1 362 230.2 401.8 175.9 424.7C121.6 447.6 60.8 453.7 0 459.7L0 0Z" fill="#f6f6f6"></path><path d="M229.9 0C223.1 29.1 216.3 58.1 205.1 85C194 111.8 178.5 136.5 158.7 158.7C139 181 115.1 200.9 88 212.4C60.8 223.8 30.4 226.8 0 229.9L0 0Z" fill="#eeeeee"></path></g></svg>